REM DIRINDEX 1\2,1\3,1\4
REM DIRNAME cjc151,folder01,folder02,folder03
TITLE ""
FILE "014 014_TOEFL_3900.mp3" MP3
  TRACK 01 AUDIO
    TITLE "2:cjc151_0577"
    INDEX 01 00:00:00
  TRACK 02 AUDIO
    TITLE "0:"
    INDEX 01 00:01:28
  TRACK 03 AUDIO
    TITLE "3:cjc151_0578"
    INDEX 01 00:03:08
  TRACK 04 AUDIO
    TITLE "0:"
    INDEX 01 00:07:58
  TRACK 05 AUDIO
    TITLE "2:cjc151_0579"
    INDEX 01 00:09:38
  TRACK 06 AUDIO
    TITLE "0:"
    INDEX 01 00:10:49
  TRACK 07 AUDIO
    TITLE "3:cjc151_0580"
    INDEX 01 00:12:28
  TRACK 08 AUDIO
    TITLE "0:"
    INDEX 01 00:17:41
  TRACK 09 AUDIO
    TITLE "2:cjc151_0581"
    INDEX 01 00:19:18
  TRACK 10 AUDIO
    TITLE "0:"
    INDEX 01 00:20:22
  TRACK 11 AUDIO
    TITLE "3:cjc151_0582"
    INDEX 01 00:22:01
  TRACK 12 AUDIO
    TITLE "0:"
    INDEX 01 00:25:72
  TRACK 13 AUDIO
    TITLE "2:cjc151_0583"
    INDEX 01 00:27:51
  TRACK 14 AUDIO
    TITLE "0:"
    INDEX 01 00:28:59
  TRACK 15 AUDIO
    TITLE "3:cjc151_0584"
    INDEX 01 00:30:38
  TRACK 16 AUDIO
    TITLE "0:"
    INDEX 01 00:33:64
  TRACK 17 AUDIO
    TITLE "2:cjc151_0585"
    INDEX 01 00:35:43
  TRACK 18 AUDIO
    TITLE "0:"
    INDEX 01 00:36:46
  TRACK 19 AUDIO
    TITLE "3:cjc151_0586"
    INDEX 01 00:38:24
  TRACK 20 AUDIO
    TITLE "0:"
    INDEX 01 00:41:63
  TRACK 21 AUDIO
    TITLE "2:cjc151_0587"
    INDEX 01 00:43:44
  TRACK 22 AUDIO
    TITLE "0:"
    INDEX 01 00:44:63
  TRACK 23 AUDIO
    TITLE "3:cjc151_0588"
    INDEX 01 00:46:43
  TRACK 24 AUDIO
    TITLE "0:"
    INDEX 01 00:50:52
  TRACK 25 AUDIO
    TITLE "2:cjc151_0589"
    INDEX 01 00:52:37
  TRACK 26 AUDIO
    TITLE "0:"
    INDEX 01 00:53:49
  TRACK 27 AUDIO
    TITLE "3:cjc151_0590"
    INDEX 01 00:55:28
  TRACK 28 AUDIO
    TITLE "0:"
    INDEX 01 00:59:53
  TRACK 29 AUDIO
    TITLE "2:cjc151_0591"
    INDEX 01 01:01:33
  TRACK 30 AUDIO
    TITLE "0:"
    INDEX 01 01:02:38
  TRACK 31 AUDIO
    TITLE "3:cjc151_0592"
    INDEX 01 01:04:15
  TRACK 32 AUDIO
    TITLE "0:"
    INDEX 01 01:07:51
  TRACK 33 AUDIO
    TITLE "2:cjc151_0593"
    INDEX 01 01:09:30
  TRACK 34 AUDIO
    TITLE "0:"
    INDEX 01 01:10:41
  TRACK 35 AUDIO
    TITLE "3:cjc151_0594"
    INDEX 01 01:12:17
  TRACK 36 AUDIO
    TITLE "0:"
    INDEX 01 01:16:07
  TRACK 37 AUDIO
    TITLE "2:cjc151_0595"
    INDEX 01 01:17:63
  TRACK 38 AUDIO
    TITLE "0:"
    INDEX 01 01:19:09
  TRACK 39 AUDIO
    TITLE "3:cjc151_0596"
    INDEX 01 01:20:61
  TRACK 40 AUDIO
    TITLE "0:"
    INDEX 01 01:24:43
  TRACK 41 AUDIO
    TITLE "2:cjc151_0597"
    INDEX 01 01:26:23
  TRACK 42 AUDIO
    TITLE "0:"
    INDEX 01 01:27:34
  TRACK 43 AUDIO
    TITLE "3:cjc151_0598"
    INDEX 01 01:29:13
  TRACK 44 AUDIO
    TITLE "0:"
    INDEX 01 01:32:47
  TRACK 45 AUDIO
    TITLE "2:cjc151_0599"
    INDEX 01 01:34:28
  TRACK 46 AUDIO
    TITLE "0:"
    INDEX 01 01:35:26
  TRACK 47 AUDIO
    TITLE "3:cjc151_0600"
    INDEX 01 01:37:05
  TRACK 48 AUDIO
    TITLE "0:"
    INDEX 01 01:40:23
  TRACK 49 AUDIO
    TITLE "2:cjc151_0601"
    INDEX 01 01:42:00
  TRACK 50 AUDIO
    TITLE "0:"
    INDEX 01 01:43:13
  TRACK 51 AUDIO
    TITLE "3:cjc151_0602"
    INDEX 01 01:44:66
  TRACK 52 AUDIO
    TITLE "0:"
    INDEX 01 01:48:34
  TRACK 53 AUDIO
    TITLE "2:cjc151_0603"
    INDEX 01 01:50:13
  TRACK 54 AUDIO
    TITLE "0:"
    INDEX 01 01:51:11
  TRACK 55 AUDIO
    TITLE "3:cjc151_0604"
    INDEX 01 01:52:63
  TRACK 56 AUDIO
    TITLE "0:"
    INDEX 01 01:56:59
  TRACK 57 AUDIO
    TITLE "2:cjc151_0605"
    INDEX 01 01:58:38
  TRACK 58 AUDIO
    TITLE "0:"
    INDEX 01 01:59:50
  TRACK 59 AUDIO
    TITLE "3:cjc151_0606"
    INDEX 01 02:01:29
  TRACK 60 AUDIO
    TITLE "0:"
    INDEX 01 02:05:34
  TRACK 61 AUDIO
    TITLE "2:cjc151_0607"
    INDEX 01 02:07:14
  TRACK 62 AUDIO
    TITLE "0:"
    INDEX 01 02:08:27
  TRACK 63 AUDIO
    TITLE "3:cjc151_0608"
    INDEX 01 02:10:06
  TRACK 64 AUDIO
    TITLE "0:"
    INDEX 01 02:13:38
  TRACK 65 AUDIO
    TITLE "2:cjc151_0609"
    INDEX 01 02:15:15
  TRACK 66 AUDIO
    TITLE "0:"
    INDEX 01 02:16:40
  TRACK 67 AUDIO
    TITLE "3:cjc151_0610"
    INDEX 01 02:18:18
  TRACK 68 AUDIO
    TITLE "0:"
    INDEX 01 02:22:11
  TRACK 69 AUDIO
    TITLE "2:cjc151_0611"
    INDEX 01 02:23:66
  TRACK 70 AUDIO
    TITLE "0:"
    INDEX 01 02:25:12
  TRACK 71 AUDIO
    TITLE "3:cjc151_0612"
    INDEX 01 02:26:66
  TRACK 72 AUDIO
    TITLE "0:"
    INDEX 01 02:30:27
  TRACK 73 AUDIO
    TITLE "2:cjc151_0613"
    INDEX 01 02:32:06
  TRACK 74 AUDIO
    TITLE "0:"
    INDEX 01 02:33:13
  TRACK 75 AUDIO
    TITLE "3:cjc151_0614"
    INDEX 01 02:34:66
  TRACK 76 AUDIO
    TITLE "0:"
    INDEX 01 02:38:22
  TRACK 77 AUDIO
    TITLE "2:cjc151_0615"
    INDEX 01 02:40:01
  TRACK 78 AUDIO
    TITLE "0:"
    INDEX 01 02:41:21
  TRACK 79 AUDIO
    TITLE "3:cjc151_0616"
    INDEX 01 02:42:73
  TRACK 80 AUDIO
    TITLE "0:"
    INDEX 01 02:46:61
  TRACK 81 AUDIO
    TITLE "2:cjc151_0617"
    INDEX 01 02:48:38
  TRACK 82 AUDIO
    TITLE "0:"
    INDEX 01 02:49:49
  TRACK 83 AUDIO
    TITLE "3:cjc151_0618"
    INDEX 01 02:51:29
  TRACK 84 AUDIO
    TITLE "0:"
    INDEX 01 02:55:34
  TRACK 85 AUDIO
    TITLE "2:cjc151_0619"
    INDEX 01 02:57:14
  TRACK 86 AUDIO
    TITLE "0:"
    INDEX 01 02:58:11
  TRACK 87 AUDIO
    TITLE "3:cjc151_0620"
    INDEX 01 02:59:65
  TRACK 88 AUDIO
    TITLE "0:"
    INDEX 01 03:03:20
